<svg xmlns="http://www.w3.org/2000/svg" viewBox="0 0 64 64" width="64" height="64">
  <defs>
    <linearGradient id="g" x1="0" y1="0" x2="1" y2="1">
      <stop offset="0" stop-color="#2dd4bf"/>
      <stop offset="1" stop-color="#6366f1"/>
    </linearGradient>
  </defs>
  <rect width="64" height="64" rx="14" fill="#0b1120"/>
  <path d="M32 12a14 14 0 0 0-14 14v6a6 6 0 0 0 6 6h2V28h-6v-2a12 12 0 0 1 24 0v2h-6v14h4a6 6 0 0 0 6-6v-6a14 14 0 0 0-14-14Z" fill="url(#g)"/>
  <path d="M40 42v2a6 6 0 0 1-6 6h-4" fill="none" stroke="url(#g)" stroke-width="3" stroke-linecap="round"/>
</svg>
